<svg width="520" height="100" viewBox="0 0 520 100" fill="none" xmlns="http://www.w3.org/2000/svg">
<path d="M510.784 97.3314C510.784 98.0295 511.347 98.5955 512.041 98.5955C512.735 98.5955 513.298 98.0295 513.298 97.3314V94.8033C513.298 94.1052 512.735 93.5393 512.041 93.5393C511.347 93.5393 510.784 94.1052 510.784 94.8033V97.3314Z" fill="#E6123D"/>
<path d="M510.784 89.1853C510.784 89.8835 511.347 90.4494 512.041 90.4494C512.735 90.4494 513.298 89.8835 513.298 89.1853V86.6573C513.298 85.9591 512.735 85.3932 512.041 85.3932C511.347 85.3932 510.784 85.9591 510.784 86.6573V89.1853Z" fill="#E6123D"/>
<path d="M510.505 91.9943C510.505 92.6924 509.942 93.2584 509.248 93.2584H506.735C506.041 93.2584 505.478 92.6924 505.478 91.9943C505.478 91.2962 506.041 90.7303 506.735 90.7303H509.248C509.942 90.7303 510.505 91.2962 510.505 91.9943Z" fill="#E6123D"/>
<path d="M517.347 93.2584C518.041 93.2584 518.604 92.6924 518.604 91.9943C518.604 91.2962 518.041 90.7303 517.347 90.7303H514.834C514.139 90.7303 513.577 91.2962 513.577 91.9943C513.577 92.6924 514.139 93.2584 514.834 93.2584H517.347Z" fill="#E6123D"/>
<path d="M315.296 41.1516C315.296 41.8497 315.859 42.4156 316.553 42.4156C317.247 42.4156 317.809 41.8497 317.809 41.1516V38.6235C317.809 37.9254 317.247 37.3595 316.553 37.3595C315.859 37.3595 315.296 37.9254 315.296 38.6235V41.1516Z" fill="#E6123D"/>
<path d="M315.296 33.0055C315.296 33.7036 315.859 34.2696 316.553 34.2696C317.247 34.2696 317.809 33.7036 317.809 33.0055V30.4774C317.809 29.7793 317.247 29.2134 316.553 29.2134C315.859 29.2134 315.296 29.7793 315.296 30.4774V33.0055Z" fill="#E6123D"/>
<path d="M315.017 35.8145C315.017 36.5126 314.454 37.0786 313.76 37.0786H311.247C310.553 37.0786 309.99 36.5126 309.99 35.8145C309.99 35.1164 310.553 34.5505 311.247 34.5505H313.76C314.454 34.5505 315.017 35.1164 315.017 35.8145Z" fill="#E6123D"/>
<path d="M321.859 37.0786C322.553 37.0786 323.116 36.5126 323.116 35.8145C323.116 35.1164 322.553 34.5505 321.859 34.5505H319.345C318.651 34.5505 318.089 35.1164 318.089 35.8145C318.089 36.5126 318.651 37.0786 319.345 37.0786H321.859Z" fill="#E6123D"/>
<path d="M491.515 35.955C491.515 36.5756 491.014 37.0786 490.397 37.0786H489.28C488.663 37.0786 488.163 36.5756 488.163 35.955C488.163 35.3345 488.663 34.8314 489.28 34.8314H490.397C491.014 34.8314 491.515 35.3345 491.515 35.955Z" fill="#E6123D"/>
<path d="M487.605 35.955C487.605 36.5756 487.105 37.0786 486.488 37.0786H485.371C484.754 37.0786 484.254 36.5756 484.254 35.955C484.254 35.3345 484.754 34.8314 485.371 34.8314H486.488C487.105 34.8314 487.605 35.3345 487.605 35.955Z" fill="#E6123D"/>
<path d="M482.578 37.0786C483.195 37.0786 483.695 36.5756 483.695 35.955C483.695 35.3345 483.195 34.8314 482.578 34.8314H478.389C477.772 34.8314 477.272 35.3345 477.272 35.955C477.272 36.5756 477.772 37.0786 478.389 37.0786H482.578Z" fill="#E6123D"/>
<path fill-rule="evenodd" clip-rule="evenodd" d="M486.422 69.0336C485.997 69.4828 485.29 69.5 484.843 69.0719L478.364 62.8629C476.905 61.4637 477.889 58.9888 479.906 58.9888H488.438C490.412 58.9888 491.416 61.3751 490.042 62.8004L487.411 65.5294C486.982 65.9749 486.274 65.9859 485.831 65.5539C485.389 65.1219 485.378 64.4105 485.807 63.9651L488.438 61.236L479.906 61.236L486.384 67.445C486.831 67.8731 486.848 68.5843 486.422 69.0336Z" fill="#E6123D"/>
<path d="M512.787 8.37873C513.223 7.93994 513.223 7.22852 512.787 6.78973C512.351 6.35094 511.643 6.35094 511.207 6.78973L510.812 7.18698C510.376 7.62577 510.376 8.33719 510.812 8.77598C511.248 9.21477 511.956 9.21477 512.392 8.77598L512.787 8.37873Z" fill="#E6123D"/>
<path d="M373.153 92.6485C373.589 92.2097 373.589 91.4983 373.153 91.0595C372.716 90.6207 372.009 90.6207 371.573 91.0595L371.178 91.4568C370.742 91.8955 370.742 92.607 371.178 93.0458C371.614 93.4845 372.321 93.4845 372.758 93.0458L373.153 92.6485Z" fill="#E6123D"/>
<path d="M295.468 64.045C295.468 64.6655 294.968 65.1686 294.351 65.1686H293.234C292.617 65.1686 292.117 64.6655 292.117 64.045C292.117 63.4244 292.617 62.9214 293.234 62.9214H294.351C294.968 62.9214 295.468 63.4244 295.468 64.045Z" fill="#E6123D"/>
<path d="M291.558 64.045C291.558 64.6655 291.058 65.1686 290.441 65.1686H289.324C288.707 65.1686 288.207 64.6655 288.207 64.045C288.207 63.4244 288.707 62.9214 289.324 62.9214H290.441C291.058 62.9214 291.558 63.4244 291.558 64.045Z" fill="#E6123D"/>
<path d="M286.531 65.1686C287.148 65.1686 287.648 64.6655 287.648 64.045C287.648 63.4244 287.148 62.9214 286.531 62.9214H282.342C281.725 62.9214 281.225 63.4244 281.225 64.045C281.225 64.6655 281.725 65.1686 282.342 65.1686H286.531Z" fill="#E6123D"/>
<path d="M295.468 7.86517C295.468 8.48572 294.968 8.98877 294.351 8.98877H293.234C292.617 8.98877 292.117 8.48572 292.117 7.86517C292.117 7.24463 292.617 6.74158 293.234 6.74158H294.351C294.968 6.74158 295.468 7.24463 295.468 7.86517Z" fill="#E6123D"/>
<path d="M291.558 7.86517C291.558 8.48572 291.058 8.98877 290.441 8.98877H289.324C288.707 8.98877 288.207 8.48572 288.207 7.86517C288.207 7.24463 288.707 6.74158 289.324 6.74158L290.441 6.74158C291.058 6.74158 291.558 7.24463 291.558 7.86517Z" fill="#E6123D"/>
<path d="M286.531 8.98877C287.148 8.98877 287.648 8.48572 287.648 7.86517C287.648 7.24463 287.148 6.74158 286.531 6.74158L282.342 6.74158C281.725 6.74158 281.225 7.24463 281.225 7.86517C281.225 8.48572 281.725 8.98877 282.342 8.98877H286.531Z" fill="#E6123D"/>
<path fill-rule="evenodd" clip-rule="evenodd" d="M433.907 97.6522C433.575 97.995 433.079 98.1194 432.625 97.9737L423.048 94.895C422.561 94.7385 422.217 94.3009 422.177 93.7884C422.138 93.2758 422.411 92.7902 422.868 92.5603L426.826 90.5699L428.615 86.7914C428.834 86.3285 429.31 86.0446 429.819 86.0728C430.328 86.101 430.769 86.4357 430.937 86.9201L434.195 96.3548C434.351 96.8071 434.24 97.3094 433.907 97.6522ZM430.996 94.7958L429.567 90.6597L428.909 92.0495C428.789 92.3039 428.587 92.5106 428.337 92.6366L426.754 93.4324L430.996 94.7958Z" fill="#E6123D"/>
<path d="M459.447 31.1315C459.883 30.6927 460.59 30.6927 461.026 31.1315C461.463 31.5703 461.463 32.2818 461.026 32.7205L460.631 33.1178C460.195 33.5566 459.488 33.5566 459.052 33.1178C458.615 32.679 458.615 31.9676 459.052 31.5288L459.447 31.1315Z" fill="#E6123D"/>
<path d="M456.879 33.7137C457.316 33.2749 458.023 33.2749 458.459 33.7137C458.895 34.1525 458.895 34.8639 458.459 35.3027L458.064 35.6999C457.628 36.1387 456.921 36.1387 456.484 35.6999C456.048 35.2611 456.048 34.5497 456.484 34.1109L456.879 33.7137Z" fill="#E6123D"/>
<path d="M455.892 36.2958C455.456 35.857 454.749 35.857 454.312 36.2958L453.917 36.6931C453.481 37.1318 453.481 37.8433 453.917 38.2821C454.354 38.7209 455.061 38.7208 455.497 38.2821L455.892 37.8848C456.328 37.446 456.328 36.7346 455.892 36.2958Z" fill="#E6123D"/>
<path d="M451.745 38.8779C452.181 38.4391 452.889 38.4391 453.325 38.8779C453.761 39.3167 453.761 40.0281 453.325 40.4669L452.93 40.8642C452.494 41.303 451.786 41.303 451.35 40.8642C450.914 40.4254 450.914 39.714 451.35 39.2752L451.745 38.8779Z" fill="#E6123D"/>
<path d="M370.87 38.764C370.254 38.764 369.753 38.261 369.753 37.6404C369.753 37.0199 370.254 36.5168 370.87 36.5168H377.852C378.469 36.5168 378.969 37.0199 378.969 37.6404C378.969 38.261 378.469 38.764 377.852 38.764H370.87Z" fill="#E6123D"/>
<path d="M366.681 35.1124C366.065 35.1124 365.564 34.6093 365.564 33.9888C365.564 33.3682 366.065 32.8652 366.681 32.8652H375.618C376.235 32.8652 376.735 33.3682 376.735 33.9888C376.735 34.6093 376.235 35.1124 375.618 35.1124H366.681Z" fill="#E6123D"/>
<path fill-rule="evenodd" clip-rule="evenodd" d="M404.424 59.7899C404.401 59.7859 404.378 59.7818 404.354 59.7777C403.893 59.7001 403.248 59.6274 402.514 59.6471C401.038 59.6867 399.305 60.094 397.937 61.4697C396.561 62.8543 396.081 64.6883 395.971 66.2745C395.96 66.4285 395.953 66.5791 395.949 66.7254L399.556 63.0977C399.992 62.6589 400.699 62.6589 401.136 63.0977C401.572 63.5365 401.572 64.2479 401.136 64.6867L397.529 68.3144C397.674 68.3103 397.824 68.3032 397.977 68.2924C399.554 68.1819 401.378 67.6992 402.754 66.3146C404.122 64.9389 404.527 63.196 404.566 61.7109C404.586 60.973 404.513 60.324 404.436 59.8608C404.432 59.8366 404.428 59.813 404.424 59.7899ZM395.027 69.2417L394.785 70.3386C394.362 70.244 394.031 69.9112 393.937 69.4851L395.027 69.2417ZM395.027 69.2417C394.785 70.3386 394.786 70.3387 394.786 70.3387L394.787 70.339L394.789 70.3395L394.795 70.3408L394.813 70.3446C394.827 70.3476 394.847 70.3516 394.871 70.3564C394.919 70.366 394.987 70.3787 395.072 70.3932C395.242 70.4222 395.482 70.4583 395.778 70.49C396.369 70.5532 397.193 70.6 398.133 70.5342C399.993 70.4037 402.428 69.8201 404.334 67.9036C406.248 65.9783 406.751 63.5909 406.799 61.7708C406.824 60.8562 406.735 60.059 406.64 59.4891C406.592 59.2031 406.542 58.9714 406.503 58.8074C406.484 58.7253 406.467 58.66 406.455 58.6129C406.448 58.5894 406.443 58.5705 406.439 58.5563L406.434 58.5386L406.432 58.5325L406.432 58.5302L406.431 58.5291C406.431 58.5291 406.431 58.5283 405.36 58.8484L406.431 58.5283C406.323 58.1643 406.04 57.8796 405.678 57.7714L405.36 58.8484C405.678 57.7714 405.678 57.7711 405.678 57.7711L405.677 57.7708L405.674 57.7701L405.668 57.7683L405.651 57.7633C405.637 57.7592 405.618 57.754 405.594 57.7476C405.548 57.735 405.483 57.7181 405.401 57.6985C405.238 57.6594 405.008 57.6095 404.723 57.5615C404.157 57.4659 403.364 57.3763 402.455 57.4007C400.645 57.4493 398.272 57.9554 396.357 59.8807C394.452 61.7972 393.872 64.2464 393.742 66.1182C393.677 67.0629 393.723 67.8919 393.786 68.4862C393.818 68.7843 393.854 69.026 393.882 69.1968C393.897 69.2823 393.909 69.3502 393.919 69.3988C393.924 69.4231 393.928 69.4426 393.931 69.4571L393.934 69.4749L393.936 69.481L393.936 69.4833L393.937 69.4843C393.937 69.4843 393.937 69.4851 395.027 69.2417Z" fill="#E6123D"/>
<g clip-path="url(#clip0)">
<path fill-rule="evenodd" clip-rule="evenodd" d="M433.985 5.61798C433.985 6.23853 433.485 6.74158 432.868 6.74158H432.31C431.693 6.74158 431.193 6.23853 431.193 5.61798C431.193 4.99744 431.693 4.49439 432.31 4.49439H432.868C433.485 4.49439 433.985 4.99744 433.985 5.61798Z" fill="#E6123D"/>
<path fill-rule="evenodd" clip-rule="evenodd" d="M430.355 5.61798C430.355 6.23853 429.855 6.74158 429.238 6.74158H428.679C428.062 6.74158 427.562 6.23853 427.562 5.61798C427.562 4.99744 428.062 4.49439 428.679 4.49439H429.238C429.855 4.49439 430.355 4.99744 430.355 5.61798Z" fill="#E6123D"/>
<path fill-rule="evenodd" clip-rule="evenodd" d="M426.724 5.61798C426.724 6.23853 426.224 6.74158 425.607 6.74158H425.049C424.432 6.74158 423.932 6.23853 423.932 5.61798C423.932 4.99744 424.432 4.49439 425.049 4.49439H425.607C426.224 4.49439 426.724 4.99744 426.724 5.61798Z" fill="#E6123D"/>
<path fill-rule="evenodd" clip-rule="evenodd" d="M423.094 5.61798C423.094 6.23853 422.594 6.74158 421.977 6.74158H421.418C420.801 6.74158 420.301 6.23853 420.301 5.61798C420.301 4.99744 420.801 4.49439 421.418 4.49439H421.977C422.594 4.49439 423.094 4.99744 423.094 5.61798Z" fill="#E6123D"/>
<path fill-rule="evenodd" clip-rule="evenodd" d="M426.724 9.26971C426.724 9.89026 426.224 10.3933 425.607 10.3933H423.094C422.477 10.3933 421.977 9.89026 421.977 9.26971C421.977 8.64917 422.477 8.14612 423.094 8.14612H425.607C426.224 8.14612 426.724 8.64917 426.724 9.26971Z" fill="#E6123D"/>
<path fill-rule="evenodd" clip-rule="evenodd" d="M435.661 9.26971C435.661 9.89026 435.161 10.3933 434.544 10.3933H428.958C428.341 10.3933 427.841 9.89026 427.841 9.26971C427.841 8.64917 428.341 8.14612 428.958 8.14612H434.544C435.161 8.14612 435.661 8.64917 435.661 9.26971Z" fill="#E6123D"/>
</g>
<path d="M313.014 87.3113C312.578 86.8726 311.87 86.8726 311.434 87.3113C310.998 87.7501 310.998 88.4616 311.434 88.9004L311.829 89.2976C312.265 89.7364 312.973 89.7364 313.409 89.2976C313.845 88.8588 313.845 88.1474 313.409 87.7086L313.014 87.3113Z" fill="#E6123D"/>
<path d="M315.581 89.8935C315.145 89.4547 314.438 89.4547 314.001 89.8935C313.565 90.3323 313.565 91.0437 314.001 91.4825L314.396 91.8797C314.832 92.3185 315.54 92.3185 315.976 91.8797C316.412 91.4409 316.412 90.7295 315.976 90.2907L315.581 89.8935Z" fill="#E6123D"/>
<path d="M316.568 92.4756C317.005 92.0368 317.712 92.0368 318.148 92.4756L318.543 92.8729C318.979 93.3117 318.979 94.0231 318.543 94.4619C318.107 94.9007 317.4 94.9007 316.963 94.4619L316.568 94.0646C316.132 93.6258 316.132 92.9144 316.568 92.4756Z" fill="#E6123D"/>
<path d="M320.715 95.0577C320.279 94.6189 319.572 94.619 319.136 95.0577C318.699 95.4965 318.699 96.208 319.136 96.6467L319.531 97.044C319.967 97.4828 320.674 97.4828 321.11 97.044C321.547 96.6052 321.547 95.8938 321.11 95.455L320.715 95.0577Z" fill="#E6123D"/>
<path d="M345.226 64.5587C345.662 64.1199 345.662 63.4084 345.226 62.9697C344.789 62.5309 344.082 62.5309 343.646 62.9697L343.251 63.3669C342.815 63.8057 342.815 64.5171 343.251 64.9559C343.687 65.3947 344.394 65.3947 344.831 64.9559L345.226 64.5587Z" fill="#E6123D"/>
<g clip-path="url(#clip1)">
<path fill-rule="evenodd" clip-rule="evenodd" d="M372.127 12.3596C374.672 12.3596 376.735 10.2845 376.735 7.72479C376.735 5.16504 374.672 3.08996 372.127 3.08996C371.483 3.08996 370.872 3.22226 370.319 3.46027C369.751 3.70409 369.095 3.43914 368.852 2.8685C368.61 2.29786 368.873 1.63761 369.441 1.3938C370.267 1.03873 371.176 0.842766 372.127 0.842766C375.906 0.842766 378.969 3.92395 378.969 7.72479C378.969 11.5256 375.906 14.6068 372.127 14.6068C368.348 14.6068 365.285 11.5256 365.285 7.72479C365.285 6.74809 365.488 5.81612 365.855 4.97156C366.102 4.40292 366.76 4.14336 367.326 4.39181C367.891 4.64026 368.149 5.30264 367.902 5.87127C367.656 6.43744 367.519 7.06355 367.519 7.72479C367.519 10.2845 369.582 12.3596 372.127 12.3596Z" fill="#E6123D"/>
</g>
<path d="M271.451 97.3314C271.451 98.0295 272.013 98.5955 272.707 98.5955C273.402 98.5955 273.964 98.0295 273.964 97.3314V94.8033C273.964 94.1052 273.402 93.5393 272.707 93.5393C272.013 93.5393 271.451 94.1052 271.451 94.8033V97.3314Z" fill="#E6123D"/>
<path d="M271.451 89.1853C271.451 89.8835 272.013 90.4494 272.707 90.4494C273.402 90.4494 273.964 89.8835 273.964 89.1853V86.6573C273.964 85.9591 273.402 85.3932 272.707 85.3932C272.013 85.3932 271.451 85.9591 271.451 86.6573V89.1853Z" fill="#E6123D"/>
<path d="M271.172 91.9943C271.172 92.6924 270.609 93.2584 269.915 93.2584H267.401C266.707 93.2584 266.145 92.6924 266.145 91.9943C266.145 91.2962 266.707 90.7303 267.401 90.7303H269.915C270.609 90.7303 271.172 91.2962 271.172 91.9943Z" fill="#E6123D"/>
<path d="M278.014 93.2584C278.708 93.2584 279.27 92.6924 279.27 91.9943C279.27 91.2962 278.708 90.7303 278.014 90.7303H275.5C274.806 90.7303 274.243 91.2962 274.243 91.9943C274.243 92.6924 274.806 93.2584 275.5 93.2584H278.014Z" fill="#E6123D"/>
<path d="M75.9627 41.1516C75.9627 41.8497 76.5253 42.4156 77.2194 42.4156C77.9134 42.4156 78.4761 41.8497 78.4761 41.1516V38.6235C78.4761 37.9254 77.9134 37.3595 77.2194 37.3595C76.5253 37.3595 75.9627 37.9254 75.9627 38.6235V41.1516Z" fill="#E6123D"/>
<path d="M75.9627 33.0055C75.9627 33.7036 76.5253 34.2696 77.2194 34.2696C77.9134 34.2696 78.4761 33.7036 78.4761 33.0055V30.4774C78.4761 29.7793 77.9134 29.2134 77.2194 29.2134C76.5253 29.2134 75.9627 29.7793 75.9627 30.4774V33.0055Z" fill="#E6123D"/>
<path d="M75.6834 35.8145C75.6834 36.5126 75.1207 37.0786 74.4267 37.0786H71.9133C71.2192 37.0786 70.6566 36.5126 70.6566 35.8145C70.6566 35.1164 71.2192 34.5505 71.9133 34.5505H74.4267C75.1207 34.5505 75.6834 35.1164 75.6834 35.8145Z" fill="#E6123D"/>
<path d="M82.5255 37.0786C83.2195 37.0786 83.7822 36.5126 83.7822 35.8145C83.7822 35.1164 83.2195 34.5505 82.5255 34.5505H80.012C79.318 34.5505 78.7553 35.1164 78.7553 35.8145C78.7553 36.5126 79.318 37.0786 80.012 37.0786H82.5255Z" fill="#E6123D"/>
<g clip-path="url(#clip2)">
<path d="M252.181 35.955C252.181 36.5756 251.681 37.0786 251.064 37.0786H249.947C249.33 37.0786 248.83 36.5756 248.83 35.955C248.83 35.3345 249.33 34.8314 249.947 34.8314H251.064C251.681 34.8314 252.181 35.3345 252.181 35.955Z" fill="#E6123D"/>
<path d="M248.271 35.955C248.271 36.5756 247.771 37.0786 247.154 37.0786H246.037C245.42 37.0786 244.92 36.5756 244.92 35.955C244.92 35.3345 245.42 34.8314 246.037 34.8314H247.154C247.771 34.8314 248.271 35.3345 248.271 35.955Z" fill="#E6123D"/>
<path d="M243.245 37.0786C243.862 37.0786 244.362 36.5756 244.362 35.955C244.362 35.3345 243.862 34.8314 243.245 34.8314H239.056C238.439 34.8314 237.939 35.3345 237.939 35.955C237.939 36.5756 238.439 37.0786 239.056 37.0786H243.245Z" fill="#E6123D"/>
</g>
<path fill-rule="evenodd" clip-rule="evenodd" d="M247.089 69.0336C246.663 69.4828 245.956 69.5 245.51 69.0719L239.031 62.8629C237.571 61.4637 238.556 58.9888 240.572 58.9888H249.105C251.079 58.9888 252.083 61.3751 250.709 62.8004L248.078 65.5294C247.648 65.9749 246.941 65.9859 246.498 65.5539C246.055 65.1219 246.044 64.4105 246.474 63.9651L249.105 61.236L240.572 61.236L247.051 67.445C247.497 67.8731 247.514 68.5843 247.089 69.0336Z" fill="#E6123D"/>
<path d="M273.454 8.37873C273.89 7.93994 273.89 7.22852 273.454 6.78973C273.017 6.35094 272.31 6.35094 271.874 6.78973L271.479 7.18698C271.043 7.62577 271.043 8.33719 271.479 8.77598C271.915 9.21477 272.622 9.21477 273.059 8.77598L273.454 8.37873Z" fill="#E6123D"/>
<path d="M133.819 92.6485C134.255 92.2097 134.255 91.4983 133.819 91.0595C133.383 90.6207 132.676 90.6207 132.239 91.0595L131.844 91.4568C131.408 91.8955 131.408 92.607 131.844 93.0458C132.281 93.4845 132.988 93.4845 133.424 93.0458L133.819 92.6485Z" fill="#E6123D"/>
<g clip-path="url(#clip3)">
<path d="M56.1346 64.045C56.1346 64.6655 55.6345 65.1686 55.0175 65.1686H53.9005C53.2835 65.1686 52.7834 64.6655 52.7834 64.045C52.7834 63.4244 53.2835 62.9214 53.9005 62.9214H55.0175C55.6345 62.9214 56.1346 63.4244 56.1346 64.045Z" fill="#E6123D"/>
<path d="M52.2248 64.045C52.2248 64.6655 51.7247 65.1686 51.1077 65.1686H49.9907C49.3737 65.1686 48.8736 64.6655 48.8736 64.045C48.8736 63.4244 49.3737 62.9214 49.9907 62.9214H51.1077C51.7247 62.9214 52.2248 63.4244 52.2248 64.045Z" fill="#E6123D"/>
<path d="M47.198 65.1686C47.8149 65.1686 48.315 64.6655 48.315 64.045C48.315 63.4244 47.8149 62.9214 47.198 62.9214H43.0089C42.392 62.9214 41.8918 63.4244 41.8918 64.045C41.8918 64.6655 42.392 65.1686 43.0089 65.1686H47.198Z" fill="#E6123D"/>
</g>
<g clip-path="url(#clip4)">
<path d="M56.1346 7.86517C56.1346 8.48572 55.6345 8.98877 55.0175 8.98877H53.9005C53.2835 8.98877 52.7834 8.48572 52.7834 7.86517C52.7834 7.24463 53.2835 6.74158 53.9005 6.74158H55.0175C55.6345 6.74158 56.1346 7.24463 56.1346 7.86517Z" fill="#E6123D"/>
<path d="M52.2248 7.86517C52.2248 8.48572 51.7247 8.98877 51.1077 8.98877H49.9907C49.3737 8.98877 48.8736 8.48572 48.8736 7.86517C48.8736 7.24463 49.3737 6.74158 49.9907 6.74158L51.1077 6.74158C51.7247 6.74158 52.2248 7.24463 52.2248 7.86517Z" fill="#E6123D"/>
<path d="M47.198 8.98877C47.8149 8.98877 48.315 8.48572 48.315 7.86517C48.315 7.24463 47.8149 6.74158 47.198 6.74158L43.0089 6.74158C42.392 6.74158 41.8918 7.24463 41.8918 7.86517C41.8918 8.48572 42.392 8.98877 43.0089 8.98877H47.198Z" fill="#E6123D"/>
</g>
<path fill-rule="evenodd" clip-rule="evenodd" d="M194.574 97.6522C194.242 97.995 193.745 98.1194 193.292 97.9737L183.714 94.895C183.228 94.7385 182.883 94.3009 182.844 93.7884C182.805 93.2758 183.078 92.7902 183.535 92.5603L187.493 90.5699L189.281 86.7914C189.501 86.3285 189.976 86.0446 190.485 86.0728C190.994 86.101 191.436 86.4357 191.603 86.9201L194.862 96.3548C195.018 96.8071 194.906 97.3094 194.574 97.6522ZM191.662 94.7958L190.234 90.6597L189.576 92.0495C189.456 92.3039 189.254 92.5106 189.003 92.6366L187.421 93.4324L191.662 94.7958Z" fill="#E6123D"/>
<path d="M220.113 31.1315C220.549 30.6927 221.257 30.6927 221.693 31.1315C222.129 31.5703 222.129 32.2818 221.693 32.7205L221.298 33.1178C220.862 33.5566 220.155 33.5566 219.718 33.1178C219.282 32.679 219.282 31.9676 219.718 31.5288L220.113 31.1315Z" fill="#E6123D"/>
<path d="M217.546 33.7137C217.982 33.2749 218.69 33.2749 219.126 33.7137C219.562 34.1525 219.562 34.8639 219.126 35.3027L218.731 35.6999C218.295 36.1387 217.587 36.1387 217.151 35.6999C216.715 35.2611 216.715 34.5497 217.151 34.1109L217.546 33.7137Z" fill="#E6123D"/>
<path d="M216.559 36.2958C216.122 35.857 215.415 35.857 214.979 36.2958L214.584 36.6931C214.148 37.1318 214.148 37.8433 214.584 38.2821C215.02 38.7209 215.728 38.7209 216.164 38.2821L216.559 37.8848C216.995 37.446 216.995 36.7346 216.559 36.2958Z" fill="#E6123D"/>
<path d="M212.412 38.8779C212.848 38.4391 213.555 38.4391 213.992 38.8779C214.428 39.3167 214.428 40.0281 213.992 40.4669L213.597 40.8642C213.16 41.303 212.453 41.303 212.017 40.8642C211.581 40.4254 211.581 39.714 212.017 39.2752L212.412 38.8779Z" fill="#E6123D"/>
<path d="M131.537 38.764C130.92 38.764 130.42 38.261 130.42 37.6404C130.42 37.0199 130.92 36.5168 131.537 36.5168H138.519C139.136 36.5168 139.636 37.0199 139.636 37.6404C139.636 38.261 139.136 38.764 138.519 38.764H131.537Z" fill="#E6123D"/>
<path d="M127.348 35.1124C126.731 35.1124 126.231 34.6093 126.231 33.9888C126.231 33.3682 126.731 32.8652 127.348 32.8652H136.285C136.902 32.8652 137.402 33.3682 137.402 33.9888C137.402 34.6093 136.902 35.1124 136.285 35.1124H127.348Z" fill="#E6123D"/>
<path fill-rule="evenodd" clip-rule="evenodd" d="M165.091 59.7899C165.068 59.7859 165.044 59.7818 165.02 59.7777C164.56 59.7001 163.915 59.6274 163.181 59.6471C161.705 59.6867 159.972 60.094 158.604 61.4697C157.227 62.8543 156.748 64.6883 156.638 66.2745C156.627 66.4285 156.62 66.5791 156.616 66.7254L160.222 63.0977C160.659 62.6589 161.366 62.6589 161.802 63.0977C162.238 63.5365 162.238 64.2479 161.802 64.6867L158.196 68.3144C158.341 68.3103 158.491 68.3032 158.644 68.2924C160.221 68.1819 162.044 67.6992 163.421 66.3146C164.788 64.9389 165.193 63.196 165.233 61.7109C165.252 60.973 165.18 60.324 165.103 59.8608C165.099 59.8366 165.095 59.813 165.091 59.7899ZM155.694 69.2417L155.452 70.3386C155.028 70.244 154.697 69.9112 154.603 69.4851L155.694 69.2417ZM155.694 69.2417C155.452 70.3386 155.453 70.3387 155.453 70.3387L155.454 70.339L155.456 70.3395L155.462 70.3408L155.48 70.3446C155.494 70.3476 155.514 70.3516 155.538 70.3564C155.586 70.366 155.654 70.3787 155.739 70.3932C155.908 70.4222 156.149 70.4583 156.445 70.49C157.036 70.5532 157.86 70.6 158.799 70.5342C160.66 70.4037 163.095 69.8201 165 67.9036C166.915 65.9783 167.418 63.5909 167.466 61.7708C167.49 60.8562 167.401 60.059 167.306 59.4891C167.259 59.2031 167.209 58.9714 167.17 58.8074C167.151 58.7253 167.134 58.66 167.121 58.6129C167.115 58.5894 167.11 58.5705 167.106 58.5563L167.101 58.5386L167.099 58.5325L167.098 58.5302L167.098 58.5291C167.098 58.5291 167.098 58.5283 166.027 58.8484L167.098 58.5283C166.99 58.1643 166.707 57.8796 166.345 57.7714L166.027 58.8484C166.345 57.7714 166.344 57.7711 166.344 57.7711L166.343 57.7708L166.341 57.7701L166.335 57.7683L166.317 57.7633C166.303 57.7592 166.284 57.754 166.261 57.7476C166.214 57.735 166.149 57.7181 166.068 57.6985C165.905 57.6594 165.674 57.6095 165.39 57.5615C164.823 57.4659 164.031 57.3763 163.121 57.4007C161.312 57.4493 158.938 57.9554 157.024 59.8807C155.119 61.7972 154.539 64.2464 154.409 66.1182C154.343 67.0629 154.39 67.8919 154.453 68.4862C154.484 68.7843 154.52 69.026 154.549 69.1968C154.563 69.2823 154.576 69.3502 154.586 69.3988C154.59 69.4231 154.594 69.4426 154.597 69.4571L154.601 69.4749L154.602 69.481L154.603 69.4833L154.603 69.4843C154.603 69.4843 154.603 69.4851 155.694 69.2417Z" fill="#E6123D"/>
<g clip-path="url(#clip5)">
<path fill-rule="evenodd" clip-rule="evenodd" d="M194.652 5.61798C194.652 6.23853 194.152 6.74158 193.535 6.74158H192.976C192.359 6.74158 191.859 6.23853 191.859 5.61798C191.859 4.99744 192.359 4.49439 192.976 4.49439H193.535C194.152 4.49439 194.652 4.99744 194.652 5.61798Z" fill="#E6123D"/>
<path fill-rule="evenodd" clip-rule="evenodd" d="M191.021 5.61798C191.021 6.23853 190.521 6.74158 189.904 6.74158H189.346C188.729 6.74158 188.229 6.23853 188.229 5.61798C188.229 4.99744 188.729 4.49439 189.346 4.49439H189.904C190.521 4.49439 191.021 4.99744 191.021 5.61798Z" fill="#E6123D"/>
<path fill-rule="evenodd" clip-rule="evenodd" d="M187.391 5.61798C187.391 6.23853 186.891 6.74158 186.274 6.74158H185.715C185.098 6.74158 184.598 6.23853 184.598 5.61798C184.598 4.99744 185.098 4.49439 185.715 4.49439H186.274C186.891 4.49439 187.391 4.99744 187.391 5.61798Z" fill="#E6123D"/>
<path fill-rule="evenodd" clip-rule="evenodd" d="M183.76 5.61798C183.76 6.23853 183.26 6.74158 182.643 6.74158H182.085C181.468 6.74158 180.968 6.23853 180.968 5.61798C180.968 4.99744 181.468 4.49439 182.085 4.49439H182.643C183.26 4.49439 183.76 4.99744 183.76 5.61798Z" fill="#E6123D"/>
<path fill-rule="evenodd" clip-rule="evenodd" d="M187.391 9.26971C187.391 9.89026 186.891 10.3933 186.274 10.3933H183.76C183.143 10.3933 182.643 9.89026 182.643 9.26971C182.643 8.64917 183.143 8.14612 183.76 8.14612H186.274C186.891 8.14612 187.391 8.64917 187.391 9.26971Z" fill="#E6123D"/>
<path fill-rule="evenodd" clip-rule="evenodd" d="M196.327 9.26971C196.327 9.89026 195.827 10.3933 195.21 10.3933H189.625C189.008 10.3933 188.508 9.89026 188.508 9.26971C188.508 8.64917 189.008 8.14612 189.625 8.14612H195.21C195.827 8.14612 196.327 8.64917 196.327 9.26971Z" fill="#E6123D"/>
</g>
<path d="M73.6806 87.3113C73.2443 86.8726 72.5371 86.8726 72.1008 87.3113C71.6646 87.7501 71.6646 88.4616 72.1008 88.9004L72.4958 89.2976C72.932 89.7364 73.6393 89.7364 74.0755 89.2976C74.5118 88.8588 74.5118 88.1474 74.0755 87.7086L73.6806 87.3113Z" fill="#E6123D"/>
<path d="M76.2477 89.8935C75.8115 89.4547 75.1042 89.4547 74.668 89.8935C74.2317 90.3323 74.2317 91.0437 74.668 91.4825L75.0629 91.8797C75.4992 92.3185 76.2064 92.3185 76.6427 91.8797C77.0789 91.4409 77.0789 90.7295 76.6427 90.2907L76.2477 89.8935Z" fill="#E6123D"/>
<path d="M77.2351 92.4756C77.6714 92.0368 78.3786 92.0368 78.8149 92.4756L79.2098 92.8729C79.6461 93.3117 79.6461 94.0231 79.2098 94.4619C78.7736 94.9007 78.0663 94.9007 77.6301 94.4619L77.2351 94.0646C76.7989 93.6258 76.7989 92.9144 77.2351 92.4756Z" fill="#E6123D"/>
<path d="M81.382 95.0577C80.9458 94.619 80.2385 94.619 79.8023 95.0577C79.366 95.4965 79.366 96.208 79.8023 96.6467L80.1972 97.044C80.6334 97.4828 81.3407 97.4828 81.777 97.044C82.2132 96.6052 82.2132 95.8938 81.777 95.455L81.382 95.0577Z" fill="#E6123D"/>
<path d="M105.892 64.5587C106.329 64.1199 106.329 63.4084 105.892 62.9697C105.456 62.5309 104.749 62.5309 104.313 62.9697L103.918 63.3669C103.481 63.8057 103.481 64.5171 103.918 64.9559C104.354 65.3947 105.061 65.3947 105.497 64.9559L105.892 64.5587Z" fill="#E6123D"/>
<g clip-path="url(#clip6)">
<path fill-rule="evenodd" clip-rule="evenodd" d="M132.794 12.3596C135.339 12.3596 137.402 10.2845 137.402 7.72479C137.402 5.16504 135.339 3.08996 132.794 3.08996C132.15 3.08996 131.539 3.22226 130.985 3.46027C130.418 3.70409 129.762 3.43914 129.519 2.8685C129.277 2.29786 129.54 1.63761 130.107 1.3938C130.934 1.03873 131.842 0.842766 132.794 0.842766C136.573 0.842766 139.636 3.92395 139.636 7.72479C139.636 11.5256 136.573 14.6068 132.794 14.6068C129.015 14.6068 125.952 11.5256 125.952 7.72479C125.952 6.74809 126.155 5.81612 126.522 4.97156C126.769 4.40292 127.427 4.14336 127.992 4.39181C128.558 4.64026 128.816 5.30264 128.569 5.87127C128.323 6.43744 128.186 7.06355 128.186 7.72479C128.186 10.2845 130.249 12.3596 132.794 12.3596Z" fill="#E6123D"/>
</g>
<path d="M32.1175 97.3314C32.1175 98.0295 32.6801 98.5955 33.3742 98.5955C34.0682 98.5955 34.6309 98.0295 34.6309 97.3314V94.8033C34.6309 94.1052 34.0682 93.5393 33.3742 93.5393C32.6801 93.5393 32.1175 94.1052 32.1175 94.8033V97.3314Z" fill="#E6123D"/>
<path d="M32.1175 89.1853C32.1175 89.8835 32.6801 90.4494 33.3742 90.4494C34.0682 90.4494 34.6309 89.8835 34.6309 89.1853V86.6573C34.6309 85.9591 34.0682 85.3932 33.3742 85.3932C32.6801 85.3932 32.1175 85.9591 32.1175 86.6573V89.1853Z" fill="#E6123D"/>
<path d="M31.8382 91.9943C31.8382 92.6924 31.2756 93.2584 30.5815 93.2584H28.0681C27.374 93.2584 26.8114 92.6924 26.8114 91.9943C26.8114 91.2962 27.374 90.7303 28.0681 90.7303H30.5815C31.2756 90.7303 31.8382 91.2962 31.8382 91.9943Z" fill="#E6123D"/>
<path d="M38.6803 93.2584C39.3743 93.2584 39.937 92.6924 39.937 91.9943C39.937 91.2962 39.3743 90.7303 38.6803 90.7303H36.1669C35.4728 90.7303 34.9102 91.2962 34.9102 91.9943C34.9102 92.6924 35.4728 93.2584 36.1669 93.2584H38.6803Z" fill="#E6123D"/>
<g clip-path="url(#clip7)">
<path d="M12.8479 35.955C12.8479 36.5756 12.3478 37.0786 11.7308 37.0786H10.6138C9.99682 37.0786 9.49669 36.5756 9.49669 35.955C9.49669 35.3345 9.99682 34.8314 10.6138 34.8314H11.7308C12.3478 34.8314 12.8479 35.3345 12.8479 35.955Z" fill="#E6123D"/>
<path d="M8.93816 35.955C8.93816 36.5756 8.43802 37.0786 7.82108 37.0786H6.70401C6.08706 37.0786 5.58693 36.5756 5.58693 35.955C5.58693 35.3345 6.08706 34.8314 6.70401 34.8314H7.82108C8.43802 34.8314 8.93816 35.3345 8.93816 35.955Z" fill="#E6123D"/>
<path d="M3.91132 37.0786C4.52827 37.0786 5.0284 36.5756 5.0284 35.955C5.0284 35.3345 4.52827 34.8314 3.91132 34.8314H-0.277705C-0.894648 34.8314 -1.39478 35.3345 -1.39478 35.955C-1.39478 36.5756 -0.894648 37.0786 -0.277705 37.0786H3.91132Z" fill="#E6123D"/>
</g>
<path fill-rule="evenodd" clip-rule="evenodd" d="M7.75553 69.0336C7.32995 69.4828 6.62286 69.5 6.17621 69.0719L-0.302186 62.8629C-1.76207 61.4637 -0.777514 58.9888 1.23901 58.9888H9.77151C11.7454 58.9888 12.7495 61.3751 11.3754 62.8004L8.74441 65.5294C8.31493 65.9749 7.60772 65.9859 7.16482 65.5539C6.72191 65.1219 6.71103 64.4105 7.14052 63.9651L9.77151 61.236L1.23901 61.236L7.71741 67.445C8.16405 67.8731 8.18112 68.5843 7.75553 69.0336Z" fill="#E6123D"/>
<path d="M34.1202 8.37873C34.5565 7.93994 34.5565 7.22852 34.1202 6.78973C33.684 6.35094 32.9767 6.35094 32.5405 6.78973L32.1455 7.18698C31.7093 7.62577 31.7093 8.33719 32.1455 8.77598C32.5818 9.21477 33.2891 9.21477 33.7253 8.77598L34.1202 8.37873Z" fill="#E6123D"/>
<defs>
<clipPath id="clip0">
<rect width="15.6391" height="15.7303" fill="white" transform="translate(435.94 15.7303) rotate(-180)"/>
</clipPath>
<clipPath id="clip1">
<rect width="15.639" height="15.7303" fill="white" transform="translate(380.086 15.7303) rotate(-180)"/>
</clipPath>
<clipPath id="clip2">
<rect width="15.639" height="15.7303" fill="white" transform="translate(253.019 43.8202) rotate(-180)"/>
</clipPath>
<clipPath id="clip3">
<rect width="15.6391" height="15.7303" fill="white" transform="translate(56.9724 71.9102) rotate(-180)"/>
</clipPath>
<clipPath id="clip4">
<rect width="15.6391" height="15.7303" fill="white" transform="translate(56.9724 15.7303) rotate(-180)"/>
</clipPath>
<clipPath id="clip5">
<rect width="15.639" height="15.7303" fill="white" transform="translate(196.607 15.7303) rotate(-180)"/>
</clipPath>
<clipPath id="clip6">
<rect width="15.639" height="15.7303" fill="white" transform="translate(140.753 15.7303) rotate(-180)"/>
</clipPath>
<clipPath id="clip7">
<rect width="15.639" height="15.7303" fill="white" transform="translate(13.6857 43.8202) rotate(-180)"/>
</clipPath>
</defs>
</svg>
