<svg width="1047" height="145" viewBox="0 0 1047 145" fill="none" xmlns="http://www.w3.org/2000/svg">
<g opacity="0.5">
<mask id="mask0_605_4258" style="mask-type:alpha" maskUnits="userSpaceOnUse" x="0" y="0" width="1046" height="145">
<rect width="1046" height="145" fill="#E6123D"/>
</mask>
<g mask="url(#mask0_605_4258)">
<path d="M13.4387 3.86949C13.4387 2.85722 12.6182 2.03662 11.6061 2.03662C10.5941 2.03662 9.77359 2.85722 9.77359 3.86949V7.53522C9.77359 8.54748 10.5941 9.36808 11.6061 9.36808C12.6182 9.36808 13.4387 8.54748 13.4387 7.53522V3.86949Z" fill="white"/>
<path d="M13.4387 15.6813C13.4387 14.669 12.6182 13.8484 11.6061 13.8484C10.5941 13.8484 9.77359 14.669 9.77359 15.6813V19.347C9.77359 20.3593 10.5941 21.1799 11.6061 21.1799C12.6182 21.1799 13.4387 20.3593 13.4387 19.347V15.6813Z" fill="white"/>
<path d="M13.8459 11.6083C13.8459 10.596 14.6664 9.77539 15.6785 9.77539H19.3436C20.3557 9.77539 21.1762 10.596 21.1762 11.6083C21.1762 12.6205 20.3557 13.4411 19.3436 13.4411H15.6785C14.6664 13.4411 13.8459 12.6205 13.8459 11.6083Z" fill="white"/>
<path d="M3.86869 9.77539C2.8566 9.77539 2.03613 10.596 2.03613 11.6083C2.03613 12.6205 2.8566 13.4411 3.86869 13.4411H7.5338C8.54589 13.4411 9.36635 12.6205 9.36635 11.6083C9.36635 10.596 8.54589 9.77539 7.5338 9.77539H3.86869Z" fill="white"/>
<path d="M298.503 85.3302C298.503 84.3179 297.683 83.4973 296.671 83.4973C295.658 83.4973 294.838 84.3179 294.838 85.3302V88.9959C294.838 90.0082 295.658 90.8288 296.671 90.8288C297.683 90.8288 298.503 90.0082 298.503 88.9959V85.3302Z" fill="white"/>
<path d="M298.503 97.142C298.503 96.1297 297.683 95.3091 296.671 95.3091C295.658 95.3091 294.838 96.1297 294.838 97.142V100.808C294.838 101.82 295.658 102.641 296.671 102.641C297.683 102.641 298.503 101.82 298.503 100.808V97.142Z" fill="white"/>
<path d="M298.91 93.0689C298.91 92.0567 299.731 91.2361 300.743 91.2361H304.408C305.42 91.2361 306.241 92.0567 306.241 93.0689C306.241 94.0812 305.42 94.9018 304.408 94.9018H300.743C299.731 94.9018 298.91 94.0812 298.91 93.0689Z" fill="white"/>
<path d="M288.933 91.2361C287.921 91.2361 287.101 92.0567 287.101 93.0689C287.101 94.0812 287.921 94.9018 288.933 94.9018H292.598C293.61 94.9018 294.431 94.0812 294.431 93.0689C294.431 92.0567 293.61 91.2361 292.598 91.2361H288.933Z" fill="white"/>
<path d="M41.5381 92.8653C41.5381 91.9655 42.2674 91.2361 43.167 91.2361H44.796C45.6956 91.2361 46.4249 91.9655 46.4249 92.8653C46.4249 93.7651 45.6956 94.4945 44.796 94.4945H43.167C42.2674 94.4945 41.5381 93.7651 41.5381 92.8653Z" fill="white"/>
<path d="M47.2394 92.8653C47.2394 91.9655 47.9687 91.2361 48.8683 91.2361H50.4972C51.3969 91.2361 52.1262 91.9655 52.1262 92.8653C52.1262 93.7651 51.3969 94.4945 50.4972 94.4945H48.8683C47.9687 94.4945 47.2394 93.7651 47.2394 92.8653Z" fill="white"/>
<path d="M54.5696 91.2361C53.67 91.2361 52.9407 91.9655 52.9407 92.8653C52.9407 93.7651 53.67 94.4945 54.5696 94.4945H60.6781C61.5777 94.4945 62.3071 93.7651 62.3071 92.8653C62.3071 91.9655 61.5777 91.2361 60.6781 91.2361H54.5696Z" fill="white"/>
<path fill-rule="evenodd" clip-rule="evenodd" d="M48.9639 44.9013C49.5845 44.2499 50.6156 44.225 51.2669 44.8457L60.7138 53.8488C62.8426 55.8776 61.4069 59.4662 58.4664 59.4662H46.0241C43.1458 59.4662 41.6816 56.0062 43.6853 53.9395L47.5219 49.9823C48.1482 49.3364 49.1794 49.3205 49.8253 49.9469C50.4711 50.5733 50.487 51.6047 49.8607 52.2507L46.0241 56.2078L58.4664 56.2078L49.0195 47.2047C48.3682 46.584 48.3433 45.5527 48.9639 44.9013Z" fill="white"/>
<path d="M10.518 132.851C9.8819 133.487 9.8819 134.519 10.518 135.155C11.1542 135.791 12.1856 135.791 12.8217 135.155L13.3976 134.579C14.0338 133.943 14.0338 132.911 13.3976 132.275C12.7615 131.639 11.7301 131.639 11.094 132.275L10.518 132.851Z" fill="white"/>
<path d="M214.135 10.6597C213.499 11.296 213.499 12.3275 214.135 12.9638C214.771 13.6 215.803 13.6 216.439 12.9638L217.015 12.3878C217.651 11.7515 217.651 10.72 217.015 10.0837C216.379 9.44748 215.347 9.44748 214.711 10.0837L214.135 10.6597Z" fill="white"/>
<path d="M327.417 52.1348C327.417 51.235 328.146 50.5056 329.046 50.5056H330.675C331.575 50.5056 332.304 51.235 332.304 52.1348C332.304 53.0346 331.575 53.764 330.675 53.764H329.046C328.146 53.764 327.417 53.0346 327.417 52.1348Z" fill="white"/>
<path d="M333.118 52.1348C333.118 51.235 333.848 50.5056 334.747 50.5056H336.376C337.276 50.5056 338.005 51.235 338.005 52.1348C338.005 53.0346 337.276 53.764 336.376 53.764H334.747C333.848 53.764 333.118 53.0346 333.118 52.1348Z" fill="white"/>
<path d="M340.449 50.5056C339.549 50.5056 338.82 51.235 338.82 52.1348C338.82 53.0346 339.549 53.764 340.449 53.764H346.557C347.457 53.764 348.186 53.0346 348.186 52.1348C348.186 51.235 347.457 50.5056 346.557 50.5056H340.449Z" fill="white"/>
<path d="M327.417 133.596C327.417 132.696 328.146 131.966 329.046 131.966H330.675C331.575 131.966 332.304 132.696 332.304 133.596C332.304 134.495 331.575 135.225 330.675 135.225H329.046C328.146 135.225 327.417 134.495 327.417 133.596Z" fill="white"/>
<path d="M333.118 133.596C333.118 132.696 333.848 131.966 334.747 131.966H336.376C337.276 131.966 338.005 132.696 338.005 133.596C338.005 134.495 337.276 135.225 336.376 135.225H334.747C333.848 135.225 333.118 134.495 333.118 133.596Z" fill="white"/>
<path d="M340.449 131.966C339.549 131.966 338.82 132.696 338.82 133.596C338.82 134.495 339.549 135.225 340.449 135.225H346.557C347.457 135.225 348.186 134.495 348.186 133.596C348.186 132.696 347.457 131.966 346.557 131.966H340.449Z" fill="white"/>
<path fill-rule="evenodd" clip-rule="evenodd" d="M125.541 3.40426C126.026 2.90723 126.75 2.72676 127.411 2.93812L141.377 7.40223C142.087 7.62916 142.589 8.26357 142.646 9.00682C142.704 9.75007 142.305 10.4541 141.639 10.7875L135.867 13.6735L133.259 19.1523C132.939 19.8237 132.246 20.2353 131.504 20.1944C130.761 20.1535 130.117 19.6681 129.873 18.9657L125.122 5.28542C124.894 4.62957 125.057 3.9013 125.541 3.40426ZM129.787 7.546L131.87 13.5433L132.829 11.5282C133.005 11.1592 133.299 10.8596 133.664 10.6768L135.972 9.52292L129.787 7.546Z" fill="white"/>
<path d="M88.3003 99.8592C87.6641 100.495 86.6327 100.495 85.9966 99.8592C85.3605 99.223 85.3605 98.1914 85.9966 97.5551L86.5725 96.9791C87.2087 96.3429 88.24 96.3429 88.8762 96.9791C89.5123 97.6154 89.5123 98.6469 88.8762 99.2832L88.3003 99.8592Z" fill="white"/>
<path d="M92.0437 96.1151C91.4076 96.7514 90.3762 96.7514 89.7401 96.1151C89.1039 95.4789 89.1039 94.4473 89.7401 93.8111L90.316 93.235C90.9521 92.5988 91.9835 92.5988 92.6196 93.235C93.2558 93.8713 93.2558 94.9028 92.6196 95.5391L92.0437 96.1151Z" fill="white"/>
<path d="M93.4835 92.371C94.1197 93.0073 95.151 93.0073 95.7872 92.371L96.3631 91.795C96.9992 91.1588 96.9992 90.1272 96.3631 89.4909C95.727 88.8547 94.6956 88.8547 94.0594 89.4909L93.4835 90.067C92.8474 90.7032 92.8474 91.7348 93.4835 92.371Z" fill="white"/>
<path d="M99.5306 88.6269C98.8945 89.2632 97.8631 89.2632 97.227 88.6269C96.5908 87.9907 96.5908 86.9591 97.227 86.3229L97.8029 85.7469C98.439 85.1106 99.4704 85.1106 100.107 85.7469C100.743 86.3831 100.743 87.4147 100.107 88.0509L99.5306 88.6269Z" fill="white"/>
<path d="M217.464 88.7922C218.363 88.7922 219.093 89.5217 219.093 90.4215C219.093 91.3212 218.363 92.0507 217.464 92.0507H207.283C206.383 92.0507 205.654 91.3212 205.654 90.4215C205.654 89.5217 206.383 88.7922 207.283 88.7922H217.464Z" fill="white"/>
<path d="M223.572 94.0872C224.472 94.0872 225.201 94.8166 225.201 95.7164C225.201 96.6162 224.472 97.3456 223.572 97.3456H210.541C209.641 97.3456 208.912 96.6162 208.912 95.7164C208.912 94.8166 209.641 94.0872 210.541 94.0872H223.572Z" fill="white"/>
<path fill-rule="evenodd" clip-rule="evenodd" d="M168.534 58.3046C168.568 58.3105 168.602 58.3164 168.637 58.3222C169.308 58.4349 170.249 58.5402 171.319 58.5117C173.472 58.4542 175.999 57.8636 177.993 55.8689C180.001 53.8612 180.7 51.2019 180.861 48.902C180.876 48.6786 180.887 48.4602 180.893 48.2481L175.633 53.5083C174.997 54.1446 173.966 54.1446 173.33 53.5083C172.693 52.8721 172.693 51.8405 173.33 51.2043L178.589 45.9441C178.377 45.95 178.158 45.9604 177.935 45.9759C175.636 46.1362 172.977 46.8361 170.969 48.8437C168.975 50.8385 168.384 53.3658 168.327 55.5191C168.299 56.5891 168.404 57.5302 168.516 58.2018C168.522 58.2369 168.528 58.2711 168.534 58.3046ZM182.237 44.5996L182.59 43.009C183.208 43.1462 183.69 43.6287 183.827 44.2466L182.237 44.5996ZM182.237 44.5996C182.59 43.009 182.589 43.0088 182.589 43.0088L182.587 43.0085L182.584 43.0077L182.575 43.0058L182.549 43.0003C182.528 42.9959 182.5 42.9901 182.465 42.9832C182.394 42.9693 182.296 42.9508 182.172 42.9298C181.924 42.8878 181.574 42.8355 181.142 42.7895C180.28 42.6979 179.078 42.6299 177.709 42.7254C174.995 42.9145 171.444 43.7608 168.666 46.5397C165.874 49.3314 165.141 52.7932 165.07 55.4323C165.035 56.7585 165.165 57.9144 165.303 58.7408C165.373 59.1555 165.445 59.4914 165.502 59.7292C165.53 59.8482 165.555 59.943 165.573 60.0112C165.582 60.0453 165.59 60.0728 165.596 60.0933L165.603 60.1189L165.606 60.1278L165.607 60.1312L165.607 60.1327C165.607 60.1327 165.608 60.134 167.169 59.6698L165.608 60.134C165.765 60.6618 166.177 61.0746 166.705 61.2315L167.169 59.6698C166.705 61.2315 166.706 61.2318 166.706 61.2318L166.708 61.2323L166.711 61.2333L166.72 61.2359L166.746 61.2432C166.766 61.249 166.794 61.2567 166.828 61.2659C166.896 61.2842 166.991 61.3087 167.11 61.3371C167.347 61.3938 167.683 61.4662 168.098 61.5358C168.924 61.6744 170.08 61.8043 171.406 61.7689C174.045 61.6985 177.506 60.9647 180.297 58.1729C183.075 55.394 183.922 51.8427 184.111 49.1285C184.206 47.7588 184.138 46.5567 184.047 45.695C184.001 45.2627 183.948 44.9123 183.906 44.6646C183.885 44.5407 183.867 44.4422 183.853 44.3717C183.846 44.3364 183.84 44.3082 183.836 44.2872L183.83 44.2613L183.828 44.2525L183.828 44.2492L183.827 44.2478C183.827 44.2478 183.827 44.2466 182.237 44.5996Z" fill="white"/>
<g clip-path="url(#clip0_605_4258)">
<path fill-rule="evenodd" clip-rule="evenodd" d="M125.428 136.854C125.428 135.954 126.157 135.225 127.057 135.225H127.871C128.771 135.225 129.5 135.954 129.5 136.854C129.5 137.754 128.771 138.483 127.871 138.483H127.057C126.157 138.483 125.428 137.754 125.428 136.854Z" fill="white"/>
<path fill-rule="evenodd" clip-rule="evenodd" d="M130.722 136.854C130.722 135.954 131.451 135.225 132.351 135.225H133.165C134.065 135.225 134.794 135.954 134.794 136.854C134.794 137.754 134.065 138.483 133.165 138.483H132.351C131.451 138.483 130.722 137.754 130.722 136.854Z" fill="white"/>
<path fill-rule="evenodd" clip-rule="evenodd" d="M136.016 136.854C136.016 135.954 136.745 135.225 137.645 135.225H138.459C139.359 135.225 140.088 135.954 140.088 136.854C140.088 137.754 139.359 138.483 138.459 138.483H137.645C136.745 138.483 136.016 137.754 136.016 136.854Z" fill="white"/>
<path fill-rule="evenodd" clip-rule="evenodd" d="M141.31 136.854C141.31 135.954 142.039 135.225 142.939 135.225H143.753C144.653 135.225 145.382 135.954 145.382 136.854C145.382 137.754 144.653 138.483 143.753 138.483H142.939C142.039 138.483 141.31 137.754 141.31 136.854Z" fill="white"/>
<path fill-rule="evenodd" clip-rule="evenodd" d="M136.016 131.559C136.016 130.659 136.745 129.93 137.645 129.93H141.31C142.209 129.93 142.939 130.659 142.939 131.559C142.939 132.459 142.209 133.188 141.31 133.188H137.645C136.745 133.188 136.016 132.459 136.016 131.559Z" fill="white"/>
<path fill-rule="evenodd" clip-rule="evenodd" d="M122.984 131.559C122.984 130.659 123.714 129.93 124.613 129.93H132.758C133.658 129.93 134.387 130.659 134.387 131.559C134.387 132.459 133.658 133.188 132.758 133.188H124.613C123.714 133.188 122.984 132.459 122.984 131.559Z" fill="white"/>
</g>
<path d="M301.831 18.3985C302.467 19.0348 303.498 19.0348 304.134 18.3985C304.77 17.7623 304.77 16.7307 304.134 16.0945L303.558 15.5184C302.922 14.8822 301.891 14.8822 301.255 15.5184C300.619 16.1547 300.619 17.1862 301.255 17.8225L301.831 18.3985Z" fill="white"/>
<path d="M298.087 14.6544C298.723 15.2907 299.755 15.2907 300.391 14.6544C301.027 14.0182 301.027 12.9866 300.391 12.3504L299.815 11.7743C299.179 11.1381 298.147 11.1381 297.511 11.7743C296.875 12.4106 296.875 13.4422 297.511 14.0784L298.087 14.6544Z" fill="white"/>
<path d="M296.647 10.9103C296.011 11.5466 294.98 11.5466 294.344 10.9103L293.768 10.3343C293.132 9.69807 293.132 8.6665 293.768 8.03026C294.404 7.39401 295.435 7.39401 296.071 8.03026L296.647 8.60627C297.283 9.24252 297.283 10.2741 296.647 10.9103Z" fill="white"/>
<path d="M290.6 7.16624C291.236 7.80248 292.268 7.80248 292.904 7.16624C293.54 6.52999 293.54 5.49843 292.904 4.86218L292.328 4.28617C291.692 3.64992 290.66 3.64992 290.024 4.28617C289.388 4.92241 289.388 5.95398 290.024 6.59022L290.6 7.16624Z" fill="white"/>
<path d="M254.859 51.39C254.223 52.0262 254.223 53.0578 254.859 53.694C255.495 54.3303 256.526 54.3303 257.163 53.694L257.738 53.118C258.375 52.4818 258.375 51.4502 257.738 50.8139C257.102 50.1777 256.071 50.1777 255.435 50.8139L254.859 51.39Z" fill="white"/>
<path fill-rule="evenodd" clip-rule="evenodd" d="M215.631 127.079C211.92 127.079 208.911 130.088 208.911 133.799C208.911 137.511 211.92 140.52 215.631 140.52C216.57 140.52 217.46 140.328 218.268 139.983C219.095 139.629 220.052 140.013 220.406 140.841C220.759 141.668 220.375 142.626 219.548 142.979C218.343 143.494 217.018 143.778 215.631 143.778C210.12 143.778 205.653 139.31 205.653 133.799C205.653 128.288 210.12 123.82 215.631 123.82C221.141 123.82 225.608 128.288 225.608 133.799C225.608 135.215 225.312 136.567 224.777 137.791C224.417 138.616 223.456 138.992 222.632 138.632C221.808 138.272 221.431 137.311 221.792 136.487C222.15 135.666 222.35 134.758 222.35 133.799C222.35 130.088 219.342 127.079 215.631 127.079Z" fill="white"/>
<path d="M362.439 3.86949C362.439 2.85722 361.618 2.03662 360.606 2.03662C359.594 2.03662 358.774 2.85722 358.774 3.86949V7.53522C358.774 8.54748 359.594 9.36808 360.606 9.36808C361.618 9.36808 362.439 8.54748 362.439 7.53522V3.86949Z" fill="white"/>
<path d="M362.439 15.6813C362.439 14.669 361.618 13.8484 360.606 13.8484C359.594 13.8484 358.774 14.669 358.774 15.6813V19.347C358.774 20.3593 359.594 21.1799 360.606 21.1799C361.618 21.1799 362.439 20.3593 362.439 19.347V15.6813Z" fill="white"/>
<path d="M362.846 11.6083C362.846 10.596 363.666 9.77539 364.678 9.77539H368.344C369.356 9.77539 370.176 10.596 370.176 11.6083C370.176 12.6205 369.356 13.4411 368.344 13.4411H364.678C363.666 13.4411 362.846 12.6205 362.846 11.6083Z" fill="white"/>
<path d="M352.869 9.77539C351.857 9.77539 351.036 10.596 351.036 11.6083C351.036 12.6205 351.857 13.4411 352.869 13.4411H356.534C357.546 13.4411 358.366 12.6205 358.366 11.6083C358.366 10.596 357.546 9.77539 356.534 9.77539H352.869Z" fill="white"/>
<path d="M647.503 85.3302C647.503 84.3179 646.683 83.4973 645.671 83.4973C644.658 83.4973 643.838 84.3179 643.838 85.3302V88.9959C643.838 90.0082 644.658 90.8288 645.671 90.8288C646.683 90.8288 647.503 90.0082 647.503 88.9959V85.3302Z" fill="white"/>
<path d="M647.503 97.142C647.503 96.1297 646.683 95.3091 645.671 95.3091C644.658 95.3091 643.838 96.1297 643.838 97.142V100.808C643.838 101.82 644.658 102.641 645.671 102.641C646.683 102.641 647.503 101.82 647.503 100.808V97.142Z" fill="white"/>
<path d="M647.91 93.0689C647.91 92.0567 648.731 91.2361 649.743 91.2361H653.408C654.42 91.2361 655.241 92.0567 655.241 93.0689C655.241 94.0812 654.42 94.9018 653.408 94.9018H649.743C648.731 94.9018 647.91 94.0812 647.91 93.0689Z" fill="white"/>
<path d="M637.933 91.2361C636.921 91.2361 636.101 92.0567 636.101 93.0689C636.101 94.0812 636.921 94.9018 637.933 94.9018H641.598C642.61 94.9018 643.431 94.0812 643.431 93.0689C643.431 92.0567 642.61 91.2361 641.598 91.2361H637.933Z" fill="white"/>
<path d="M390.538 92.8653C390.538 91.9655 391.267 91.2361 392.167 91.2361H393.796C394.696 91.2361 395.425 91.9655 395.425 92.8653C395.425 93.7651 394.696 94.4945 393.796 94.4945H392.167C391.267 94.4945 390.538 93.7651 390.538 92.8653Z" fill="white"/>
<path d="M396.239 92.8653C396.239 91.9655 396.969 91.2361 397.868 91.2361H399.497C400.397 91.2361 401.126 91.9655 401.126 92.8653C401.126 93.7651 400.397 94.4945 399.497 94.4945H397.868C396.969 94.4945 396.239 93.7651 396.239 92.8653Z" fill="white"/>
<path d="M403.57 91.2361C402.67 91.2361 401.941 91.9655 401.941 92.8653C401.941 93.7651 402.67 94.4945 403.57 94.4945H409.678C410.578 94.4945 411.307 93.7651 411.307 92.8653C411.307 91.9655 410.578 91.2361 409.678 91.2361H403.57Z" fill="white"/>
<path fill-rule="evenodd" clip-rule="evenodd" d="M397.964 44.9013C398.584 44.2499 399.616 44.225 400.267 44.8457L409.714 53.8488C411.843 55.8776 410.407 59.4662 407.466 59.4662H395.024C392.146 59.4662 390.682 56.0062 392.685 53.9395L396.522 49.9823C397.148 49.3364 398.179 49.3205 398.825 49.9469C399.471 50.5733 399.487 51.6047 398.861 52.2507L395.024 56.2078L407.466 56.2078L398.019 47.2047C397.368 46.584 397.343 45.5527 397.964 44.9013Z" fill="white"/>
<path d="M359.518 132.851C358.882 133.487 358.882 134.519 359.518 135.155C360.154 135.791 361.186 135.791 361.822 135.155L362.398 134.579C363.034 133.943 363.034 132.911 362.398 132.275C361.761 131.639 360.73 131.639 360.094 132.275L359.518 132.851Z" fill="white"/>
<path d="M563.135 10.6597C562.499 11.296 562.499 12.3275 563.135 12.9638C563.771 13.6 564.803 13.6 565.439 12.9638L566.015 12.3878C566.651 11.7515 566.651 10.72 566.015 10.0837C565.379 9.44748 564.347 9.44748 563.711 10.0837L563.135 10.6597Z" fill="white"/>
<path d="M676.416 52.1348C676.416 51.235 677.145 50.5056 678.045 50.5056H679.674C680.574 50.5056 681.303 51.235 681.303 52.1348C681.303 53.0346 680.574 53.764 679.674 53.764H678.045C677.145 53.764 676.416 53.0346 676.416 52.1348Z" fill="white"/>
<path d="M682.117 52.1348C682.117 51.235 682.847 50.5056 683.746 50.5056H685.375C686.275 50.5056 687.004 51.235 687.004 52.1348C687.004 53.0346 686.275 53.764 685.375 53.764H683.746C682.847 53.764 682.117 53.0346 682.117 52.1348Z" fill="white"/>
<path d="M689.448 50.5056C688.548 50.5056 687.819 51.235 687.819 52.1348C687.819 53.0346 688.548 53.764 689.448 53.764H695.556C696.456 53.764 697.185 53.0346 697.185 52.1348C697.185 51.235 696.456 50.5056 695.556 50.5056H689.448Z" fill="white"/>
<path d="M676.416 133.596C676.416 132.696 677.145 131.966 678.045 131.966H679.674C680.574 131.966 681.303 132.696 681.303 133.596C681.303 134.495 680.574 135.225 679.674 135.225H678.045C677.145 135.225 676.416 134.495 676.416 133.596Z" fill="white"/>
<path d="M682.117 133.596C682.117 132.696 682.847 131.966 683.746 131.966H685.375C686.275 131.966 687.004 132.696 687.004 133.596C687.004 134.495 686.275 135.225 685.375 135.225H683.746C682.847 135.225 682.117 134.495 682.117 133.596Z" fill="white"/>
<path d="M689.448 131.966C688.548 131.966 687.819 132.696 687.819 133.596C687.819 134.495 688.548 135.225 689.448 135.225H695.556C696.456 135.225 697.185 134.495 697.185 133.596C697.185 132.696 696.456 131.966 695.556 131.966H689.448Z" fill="white"/>
<path fill-rule="evenodd" clip-rule="evenodd" d="M474.542 3.40426C475.027 2.90723 475.751 2.72676 476.412 2.93812L490.378 7.40223C491.088 7.62916 491.59 8.26357 491.647 9.00682C491.705 9.75007 491.306 10.4541 490.64 10.7875L484.868 13.6735L482.26 19.1523C481.94 19.8237 481.247 20.2353 480.505 20.1944C479.762 20.1535 479.118 19.6681 478.874 18.9657L474.123 5.28542C473.895 4.62957 474.057 3.9013 474.542 3.40426ZM478.788 7.546L480.871 13.5433L481.83 11.5282C482.006 11.1592 482.3 10.8596 482.665 10.6768L484.973 9.52292L478.788 7.546Z" fill="white"/>
<path d="M437.3 99.8592C436.664 100.495 435.633 100.495 434.997 99.8592C434.36 99.223 434.36 98.1914 434.997 97.5551L435.573 96.9791C436.209 96.3429 437.24 96.3429 437.876 96.9791C438.512 97.6154 438.512 98.6469 437.876 99.2832L437.3 99.8592Z" fill="white"/>
<path d="M441.044 96.1151C440.408 96.7514 439.376 96.7514 438.74 96.1151C438.104 95.4789 438.104 94.4473 438.74 93.8111L439.316 93.235C439.952 92.5988 440.984 92.5988 441.62 93.235C442.256 93.8713 442.256 94.9028 441.62 95.5391L441.044 96.1151Z" fill="white"/>
<path d="M442.484 92.371C443.12 93.0073 444.151 93.0073 444.787 92.371L445.363 91.795C445.999 91.1588 445.999 90.1272 445.363 89.4909C444.727 88.8547 443.696 88.8547 443.059 89.4909L442.484 90.067C441.847 90.7032 441.847 91.7348 442.484 92.371Z" fill="white"/>
<path d="M448.531 88.6269C447.894 89.2632 446.863 89.2632 446.227 88.6269C445.591 87.9907 445.591 86.9591 446.227 86.3229L446.803 85.7469C447.439 85.1106 448.47 85.1106 449.107 85.7469C449.743 86.3831 449.743 87.4147 449.107 88.0509L448.531 88.6269Z" fill="white"/>
<path d="M566.464 88.7922C567.363 88.7922 568.093 89.5217 568.093 90.4215C568.093 91.3212 567.363 92.0507 566.464 92.0507H556.283C555.383 92.0507 554.654 91.3212 554.654 90.4215C554.654 89.5217 555.383 88.7922 556.283 88.7922H566.464Z" fill="white"/>
<path d="M572.572 94.0872C573.472 94.0872 574.201 94.8166 574.201 95.7164C574.201 96.6162 573.472 97.3456 572.572 97.3456H559.541C558.641 97.3456 557.912 96.6162 557.912 95.7164C557.912 94.8166 558.641 94.0872 559.541 94.0872H572.572Z" fill="white"/>
<path fill-rule="evenodd" clip-rule="evenodd" d="M517.534 58.3046C517.568 58.3105 517.602 58.3164 517.637 58.3222C518.308 58.4349 519.249 58.5402 520.319 58.5117C522.472 58.4542 524.999 57.8636 526.993 55.8689C529.001 53.8612 529.7 51.2019 529.861 48.902C529.876 48.6786 529.887 48.4602 529.892 48.2481L524.633 53.5083C523.997 54.1446 522.966 54.1446 522.33 53.5083C521.693 52.8721 521.693 51.8405 522.33 51.2043L527.589 45.9441C527.377 45.95 527.158 45.9604 526.935 45.9759C524.636 46.1362 521.977 46.8361 519.969 48.8437C517.975 50.8385 517.384 53.3658 517.327 55.5191C517.299 56.5891 517.404 57.5302 517.516 58.2018C517.522 58.2369 517.528 58.2711 517.534 58.3046ZM531.237 44.5996L531.59 43.009C532.207 43.1462 532.69 43.6287 532.827 44.2466L531.237 44.5996ZM531.237 44.5996C531.59 43.009 531.588 43.0088 531.588 43.0088L531.587 43.0085L531.584 43.0077L531.575 43.0058L531.549 43.0003C531.528 42.9959 531.5 42.9901 531.465 42.9832C531.394 42.9693 531.296 42.9508 531.172 42.9298C530.924 42.8878 530.574 42.8355 530.141 42.7895C529.28 42.6979 528.078 42.6299 526.709 42.7254C523.995 42.9145 520.444 43.7608 517.666 46.5397C514.874 49.3314 514.141 52.7932 514.07 55.4323C514.035 56.7585 514.165 57.9144 514.303 58.7408C514.373 59.1555 514.445 59.4914 514.502 59.7292C514.53 59.8482 514.555 59.943 514.573 60.0112C514.582 60.0453 514.59 60.0728 514.596 60.0933L514.603 60.1189L514.606 60.1278L514.607 60.1312L514.607 60.1327C514.607 60.1327 514.608 60.134 516.169 59.6698L514.608 60.134C514.765 60.6618 515.177 61.0746 515.705 61.2315L516.169 59.6698C515.705 61.2315 515.706 61.2318 515.706 61.2318L515.708 61.2323L515.711 61.2333L515.72 61.2359L515.746 61.2432C515.766 61.249 515.794 61.2567 515.828 61.2659C515.896 61.2842 515.991 61.3087 516.11 61.3371C516.347 61.3938 516.683 61.4662 517.098 61.5358C517.924 61.6744 519.08 61.8043 520.406 61.7689C523.045 61.6985 526.506 60.9647 529.297 58.1729C532.075 55.394 532.921 51.8427 533.111 49.1285C533.206 47.7588 533.138 46.5567 533.046 45.695C533.001 45.2627 532.948 44.9123 532.906 44.6646C532.885 44.5407 532.867 44.4422 532.853 44.3717C532.846 44.3364 532.84 44.3082 532.836 44.2872L532.83 44.2613L532.828 44.2525L532.828 44.2492L532.827 44.2478C532.827 44.2478 532.827 44.2466 531.237 44.5996Z" fill="white"/>
<g clip-path="url(#clip1_605_4258)">
<path fill-rule="evenodd" clip-rule="evenodd" d="M474.429 136.854C474.429 135.954 475.158 135.225 476.058 135.225H476.872C477.772 135.225 478.501 135.954 478.501 136.854C478.501 137.754 477.772 138.483 476.872 138.483H476.058C475.158 138.483 474.429 137.754 474.429 136.854Z" fill="white"/>
<path fill-rule="evenodd" clip-rule="evenodd" d="M479.723 136.854C479.723 135.954 480.452 135.225 481.352 135.225H482.166C483.066 135.225 483.795 135.954 483.795 136.854C483.795 137.754 483.066 138.483 482.166 138.483H481.352C480.452 138.483 479.723 137.754 479.723 136.854Z" fill="white"/>
<path fill-rule="evenodd" clip-rule="evenodd" d="M485.017 136.854C485.017 135.954 485.746 135.225 486.646 135.225H487.46C488.36 135.225 489.089 135.954 489.089 136.854C489.089 137.754 488.36 138.483 487.46 138.483H486.646C485.746 138.483 485.017 137.754 485.017 136.854Z" fill="white"/>
<path fill-rule="evenodd" clip-rule="evenodd" d="M490.311 136.854C490.311 135.954 491.04 135.225 491.939 135.225H492.754C493.654 135.225 494.383 135.954 494.383 136.854C494.383 137.754 493.654 138.483 492.754 138.483H491.939C491.04 138.483 490.311 137.754 490.311 136.854Z" fill="white"/>
<path fill-rule="evenodd" clip-rule="evenodd" d="M485.017 131.559C485.017 130.659 485.746 129.93 486.646 129.93H490.311C491.21 129.93 491.94 130.659 491.94 131.559C491.94 132.459 491.21 133.188 490.311 133.188H486.646C485.746 133.188 485.017 132.459 485.017 131.559Z" fill="white"/>
<path fill-rule="evenodd" clip-rule="evenodd" d="M471.985 131.559C471.985 130.659 472.715 129.93 473.614 129.93H481.759C482.659 129.93 483.388 130.659 483.388 131.559C483.388 132.459 482.659 133.188 481.759 133.188H473.614C472.715 133.188 471.985 132.459 471.985 131.559Z" fill="white"/>
</g>
<path d="M650.831 18.3985C651.467 19.0348 652.498 19.0348 653.134 18.3985C653.77 17.7623 653.77 16.7307 653.134 16.0945L652.558 15.5184C651.922 14.8822 650.891 14.8822 650.255 15.5184C649.619 16.1547 649.619 17.1862 650.255 17.8225L650.831 18.3985Z" fill="white"/>
<path d="M647.087 14.6544C647.723 15.2907 648.755 15.2907 649.391 14.6544C650.027 14.0182 650.027 12.9866 649.391 12.3504L648.815 11.7743C648.179 11.1381 647.147 11.1381 646.511 11.7743C645.875 12.4106 645.875 13.4422 646.511 14.0784L647.087 14.6544Z" fill="white"/>
<path d="M645.647 10.9103C645.011 11.5466 643.98 11.5466 643.344 10.9103L642.768 10.3343C642.132 9.69807 642.132 8.66651 642.768 8.03026C643.404 7.39401 644.435 7.39401 645.071 8.03026L645.647 8.60627C646.283 9.24252 646.283 10.2741 645.647 10.9103Z" fill="white"/>
<path d="M639.6 7.16624C640.236 7.80249 641.268 7.80249 641.904 7.16624C642.54 6.52999 642.54 5.49843 641.904 4.86218L641.328 4.28617C640.692 3.64992 639.66 3.64992 639.024 4.28617C638.388 4.92242 638.388 5.95398 639.024 6.59022L639.6 7.16624Z" fill="white"/>
<path d="M603.859 51.39C603.223 52.0262 603.223 53.0578 603.859 53.694C604.495 54.3303 605.526 54.3303 606.163 53.694L606.738 53.118C607.375 52.4818 607.375 51.4502 606.738 50.8139C606.102 50.1777 605.071 50.1777 604.435 50.8139L603.859 51.39Z" fill="white"/>
<path fill-rule="evenodd" clip-rule="evenodd" d="M564.631 127.079C560.92 127.079 557.911 130.088 557.911 133.799C557.911 137.511 560.92 140.52 564.631 140.52C565.57 140.52 566.46 140.328 567.268 139.983C568.095 139.629 569.052 140.013 569.406 140.841C569.759 141.668 569.375 142.626 568.548 142.979C567.343 143.494 566.018 143.778 564.631 143.778C559.12 143.778 554.653 139.31 554.653 133.799C554.653 128.288 559.12 123.82 564.631 123.82C570.141 123.82 574.608 128.288 574.608 133.799C574.608 135.215 574.312 136.567 573.777 137.791C573.417 138.616 572.456 138.992 571.632 138.632C570.808 138.272 570.431 137.311 570.791 136.487C571.15 135.666 571.35 134.758 571.35 133.799C571.35 130.088 568.342 127.079 564.631 127.079Z" fill="white"/>
<path d="M711.439 3.86949C711.439 2.85722 710.618 2.03662 709.606 2.03662C708.594 2.03662 707.774 2.85722 707.774 3.86949V7.53522C707.774 8.54748 708.594 9.36808 709.606 9.36808C710.618 9.36808 711.439 8.54748 711.439 7.53522V3.86949Z" fill="white"/>
<path d="M711.439 15.6813C711.439 14.669 710.618 13.8484 709.606 13.8484C708.594 13.8484 707.774 14.669 707.774 15.6813V19.347C707.774 20.3593 708.594 21.1799 709.606 21.1799C710.618 21.1799 711.439 20.3593 711.439 19.347V15.6813Z" fill="white"/>
<path d="M711.846 11.6083C711.846 10.596 712.666 9.77539 713.679 9.77539H717.344C718.356 9.77539 719.176 10.596 719.176 11.6083C719.176 12.6205 718.356 13.4411 717.344 13.4411H713.679C712.666 13.4411 711.846 12.6205 711.846 11.6083Z" fill="white"/>
<path d="M701.869 9.77539C700.857 9.77539 700.036 10.596 700.036 11.6083C700.036 12.6205 700.857 13.4411 701.869 13.4411H705.534C706.546 13.4411 707.366 12.6205 707.366 11.6083C707.366 10.596 706.546 9.77539 705.534 9.77539H701.869Z" fill="white"/>
<path d="M996.503 85.3302C996.503 84.3179 995.683 83.4973 994.671 83.4973C993.659 83.4973 992.838 84.3179 992.838 85.3302V88.9959C992.838 90.0082 993.659 90.8288 994.671 90.8288C995.683 90.8288 996.503 90.0082 996.503 88.9959V85.3302Z" fill="white"/>
<path d="M996.503 97.142C996.503 96.1297 995.683 95.3091 994.671 95.3091C993.659 95.3091 992.838 96.1297 992.838 97.142V100.808C992.838 101.82 993.659 102.641 994.671 102.641C995.683 102.641 996.503 101.82 996.503 100.808V97.142Z" fill="white"/>
<path d="M996.91 93.0689C996.91 92.0567 997.731 91.2361 998.743 91.2361H1002.41C1003.42 91.2361 1004.24 92.0567 1004.24 93.0689C1004.24 94.0812 1003.42 94.9018 1002.41 94.9018H998.743C997.731 94.9018 996.91 94.0812 996.91 93.0689Z" fill="white"/>
<path d="M986.933 91.2361C985.921 91.2361 985.101 92.0567 985.101 93.0689C985.101 94.0812 985.921 94.9018 986.933 94.9018H990.598C991.61 94.9018 992.431 94.0812 992.431 93.0689C992.431 92.0567 991.61 91.2361 990.598 91.2361H986.933Z" fill="white"/>
<path d="M739.538 92.8653C739.538 91.9655 740.267 91.2361 741.167 91.2361H742.796C743.696 91.2361 744.425 91.9655 744.425 92.8653C744.425 93.7651 743.696 94.4945 742.796 94.4945H741.167C740.267 94.4945 739.538 93.7651 739.538 92.8653Z" fill="white"/>
<path d="M745.239 92.8653C745.239 91.9655 745.969 91.2361 746.868 91.2361H748.497C749.397 91.2361 750.126 91.9655 750.126 92.8653C750.126 93.7651 749.397 94.4945 748.497 94.4945H746.868C745.969 94.4945 745.239 93.7651 745.239 92.8653Z" fill="white"/>
<path d="M752.57 91.2361C751.67 91.2361 750.941 91.9655 750.941 92.8653C750.941 93.7651 751.67 94.4945 752.57 94.4945H758.678C759.578 94.4945 760.307 93.7651 760.307 92.8653C760.307 91.9655 759.578 91.2361 758.678 91.2361H752.57Z" fill="white"/>
<path fill-rule="evenodd" clip-rule="evenodd" d="M746.964 44.9013C747.584 44.2499 748.616 44.225 749.267 44.8457L758.714 53.8488C760.843 55.8776 759.407 59.4662 756.466 59.4662H744.024C741.146 59.4662 739.682 56.0062 741.685 53.9395L745.522 49.9823C746.148 49.3364 747.179 49.3205 747.825 49.9469C748.471 50.5733 748.487 51.6047 747.861 52.2507L744.024 56.2078L756.466 56.2078L747.019 47.2047C746.368 46.584 746.343 45.5527 746.964 44.9013Z" fill="white"/>
<path d="M708.518 132.851C707.882 133.487 707.882 134.519 708.518 135.155C709.154 135.791 710.186 135.791 710.822 135.155L711.398 134.579C712.034 133.943 712.034 132.911 711.398 132.275C710.761 131.639 709.73 131.639 709.094 132.275L708.518 132.851Z" fill="white"/>
<path d="M912.135 10.6597C911.499 11.296 911.499 12.3275 912.135 12.9638C912.771 13.6 913.803 13.6 914.439 12.9638L915.015 12.3878C915.651 11.7515 915.651 10.72 915.015 10.0837C914.379 9.44748 913.347 9.44748 912.711 10.0837L912.135 10.6597Z" fill="white"/>
<path d="M1025.42 52.1348C1025.42 51.235 1026.15 50.5056 1027.05 50.5056H1028.67C1029.57 50.5056 1030.3 51.235 1030.3 52.1348C1030.3 53.0346 1029.57 53.764 1028.67 53.764H1027.05C1026.15 53.764 1025.42 53.0346 1025.42 52.1348Z" fill="white"/>
<path d="M1031.12 52.1348C1031.12 51.235 1031.85 50.5056 1032.75 50.5056H1034.38C1035.28 50.5056 1036 51.235 1036 52.1348C1036 53.0346 1035.28 53.764 1034.38 53.764H1032.75C1031.85 53.764 1031.12 53.0346 1031.12 52.1348Z" fill="white"/>
<path d="M1038.45 50.5056C1037.55 50.5056 1036.82 51.235 1036.82 52.1348C1036.82 53.0346 1037.55 53.764 1038.45 53.764H1044.56C1045.46 53.764 1046.19 53.0346 1046.19 52.1348C1046.19 51.235 1045.46 50.5056 1044.56 50.5056H1038.45Z" fill="white"/>
<path d="M1025.42 133.596C1025.42 132.696 1026.15 131.966 1027.05 131.966H1028.67C1029.57 131.966 1030.3 132.696 1030.3 133.596C1030.3 134.495 1029.57 135.225 1028.67 135.225H1027.05C1026.15 135.225 1025.42 134.495 1025.42 133.596Z" fill="white"/>
<path d="M1031.12 133.596C1031.12 132.696 1031.85 131.966 1032.75 131.966H1034.38C1035.28 131.966 1036 132.696 1036 133.596C1036 134.495 1035.28 135.225 1034.38 135.225H1032.75C1031.85 135.225 1031.12 134.495 1031.12 133.596Z" fill="white"/>
<path d="M1038.45 131.966C1037.55 131.966 1036.82 132.696 1036.82 133.596C1036.82 134.495 1037.55 135.225 1038.45 135.225H1044.56C1045.46 135.225 1046.19 134.495 1046.19 133.596C1046.19 132.696 1045.46 131.966 1044.56 131.966H1038.45Z" fill="white"/>
<path fill-rule="evenodd" clip-rule="evenodd" d="M823.541 3.40426C824.026 2.90723 824.75 2.72676 825.411 2.93812L839.377 7.40223C840.087 7.62916 840.589 8.26357 840.646 9.00682C840.704 9.75007 840.305 10.4541 839.639 10.7875L833.867 13.6735L831.259 19.1523C830.939 19.8237 830.246 20.2353 829.504 20.1944C828.761 20.1535 828.117 19.6681 827.873 18.9657L823.122 5.28542C822.894 4.62957 823.057 3.9013 823.541 3.40426ZM827.787 7.546L829.87 13.5433L830.829 11.5282C831.005 11.1592 831.299 10.8596 831.664 10.6768L833.972 9.52292L827.787 7.546Z" fill="white"/>
<path d="M786.3 99.8592C785.664 100.495 784.633 100.495 783.997 99.8592C783.36 99.223 783.36 98.1914 783.997 97.5551L784.573 96.9791C785.209 96.3429 786.24 96.3429 786.876 96.9791C787.512 97.6154 787.512 98.6469 786.876 99.2832L786.3 99.8592Z" fill="white"/>
<path d="M790.044 96.1151C789.408 96.7514 788.376 96.7514 787.74 96.1151C787.104 95.4789 787.104 94.4473 787.74 93.8111L788.316 93.235C788.952 92.5988 789.984 92.5988 790.62 93.235C791.256 93.8713 791.256 94.9028 790.62 95.5391L790.044 96.1151Z" fill="white"/>
<path d="M791.484 92.371C792.12 93.0073 793.151 93.0073 793.787 92.371L794.363 91.795C794.999 91.1588 794.999 90.1272 794.363 89.4909C793.727 88.8547 792.696 88.8547 792.059 89.4909L791.484 90.067C790.847 90.7032 790.847 91.7348 791.484 92.371Z" fill="white"/>
<path d="M797.531 88.6269C796.895 89.2632 795.863 89.2632 795.227 88.6269C794.591 87.9907 794.591 86.9591 795.227 86.3229L795.803 85.7469C796.439 85.1106 797.47 85.1106 798.107 85.7469C798.743 86.3831 798.743 87.4147 798.107 88.0509L797.531 88.6269Z" fill="white"/>
<path d="M915.464 88.7922C916.363 88.7922 917.093 89.5217 917.093 90.4215C917.093 91.3212 916.363 92.0507 915.464 92.0507H905.283C904.383 92.0507 903.654 91.3212 903.654 90.4215C903.654 89.5217 904.383 88.7922 905.283 88.7922H915.464Z" fill="white"/>
<path d="M921.572 94.0872C922.472 94.0872 923.201 94.8166 923.201 95.7164C923.201 96.6162 922.472 97.3456 921.572 97.3456H908.541C907.641 97.3456 906.912 96.6162 906.912 95.7164C906.912 94.8166 907.641 94.0872 908.541 94.0872H921.572Z" fill="white"/>
<path fill-rule="evenodd" clip-rule="evenodd" d="M866.534 58.3046C866.568 58.3105 866.602 58.3164 866.637 58.3222C867.308 58.4349 868.249 58.5402 869.319 58.5117C871.472 58.4542 873.999 57.8636 875.993 55.8689C878.001 53.8612 878.7 51.2019 878.861 48.902C878.876 48.6786 878.887 48.4602 878.893 48.2481L873.633 53.5083C872.997 54.1446 871.966 54.1446 871.33 53.5083C870.693 52.8721 870.693 51.8405 871.33 51.2043L876.589 45.9441C876.377 45.95 876.159 45.9604 875.935 45.9759C873.636 46.1362 870.977 46.8361 868.969 48.8437C866.975 50.8385 866.384 53.3658 866.327 55.5191C866.299 56.5891 866.404 57.5302 866.516 58.2018C866.522 58.2369 866.528 58.2711 866.534 58.3046ZM880.237 44.5996L880.59 43.009C881.208 43.1462 881.69 43.6287 881.827 44.2466L880.237 44.5996ZM880.237 44.5996C880.59 43.009 880.589 43.0088 880.589 43.0088L880.587 43.0085L880.584 43.0077L880.575 43.0058L880.549 43.0003C880.528 42.9959 880.5 42.9901 880.465 42.9832C880.394 42.9693 880.296 42.9508 880.172 42.9298C879.924 42.8878 879.574 42.8355 879.142 42.7895C878.28 42.6979 877.078 42.6299 875.709 42.7254C872.995 42.9145 869.444 43.7608 866.666 46.5397C863.874 49.3314 863.141 52.7932 863.07 55.4323C863.035 56.7585 863.165 57.9144 863.303 58.7408C863.373 59.1555 863.445 59.4914 863.502 59.7292C863.53 59.8482 863.555 59.943 863.573 60.0112C863.582 60.0453 863.59 60.0728 863.596 60.0933L863.603 60.1189L863.606 60.1278L863.607 60.1312L863.607 60.1327C863.607 60.1327 863.608 60.134 865.169 59.6698L863.608 60.134C863.765 60.6618 864.177 61.0746 864.705 61.2315L865.169 59.6698C864.705 61.2315 864.706 61.2318 864.706 61.2318L864.708 61.2323L864.711 61.2333L864.72 61.2359L864.746 61.2432C864.766 61.249 864.794 61.2567 864.828 61.2659C864.896 61.2842 864.991 61.3087 865.11 61.3371C865.347 61.3938 865.683 61.4662 866.098 61.5358C866.924 61.6744 868.08 61.8043 869.406 61.7689C872.045 61.6985 875.506 60.9647 878.297 58.1729C881.075 55.394 881.922 51.8427 882.111 49.1285C882.206 47.7588 882.138 46.5567 882.047 45.695C882.001 45.2627 881.948 44.9123 881.906 44.6646C881.885 44.5407 881.867 44.4422 881.853 44.3717C881.846 44.3364 881.84 44.3082 881.836 44.2872L881.83 44.2613L881.828 44.2525L881.828 44.2492L881.827 44.2478C881.827 44.2478 881.827 44.2466 880.237 44.5996Z" fill="white"/>
<g clip-path="url(#clip2_605_4258)">
<path fill-rule="evenodd" clip-rule="evenodd" d="M823.428 136.854C823.428 135.954 824.157 135.225 825.057 135.225H825.871C826.771 135.225 827.5 135.954 827.5 136.854C827.5 137.754 826.771 138.483 825.871 138.483H825.057C824.157 138.483 823.428 137.754 823.428 136.854Z" fill="white"/>
<path fill-rule="evenodd" clip-rule="evenodd" d="M828.722 136.854C828.722 135.954 829.451 135.225 830.351 135.225H831.165C832.065 135.225 832.794 135.954 832.794 136.854C832.794 137.754 832.065 138.483 831.165 138.483H830.351C829.451 138.483 828.722 137.754 828.722 136.854Z" fill="white"/>
<path fill-rule="evenodd" clip-rule="evenodd" d="M834.016 136.854C834.016 135.954 834.745 135.225 835.645 135.225H836.459C837.359 135.225 838.088 135.954 838.088 136.854C838.088 137.754 837.359 138.483 836.459 138.483H835.645C834.745 138.483 834.016 137.754 834.016 136.854Z" fill="white"/>
<path fill-rule="evenodd" clip-rule="evenodd" d="M839.31 136.854C839.31 135.954 840.039 135.225 840.939 135.225H841.753C842.653 135.225 843.382 135.954 843.382 136.854C843.382 137.754 842.653 138.483 841.753 138.483H840.939C840.039 138.483 839.31 137.754 839.31 136.854Z" fill="white"/>
<path fill-rule="evenodd" clip-rule="evenodd" d="M834.016 131.559C834.016 130.659 834.745 129.93 835.645 129.93H839.31C840.209 129.93 840.939 130.659 840.939 131.559C840.939 132.459 840.209 133.188 839.31 133.188H835.645C834.745 133.188 834.016 132.459 834.016 131.559Z" fill="white"/>
<path fill-rule="evenodd" clip-rule="evenodd" d="M820.984 131.559C820.984 130.659 821.714 129.93 822.613 129.93H830.758C831.658 129.93 832.387 130.659 832.387 131.559C832.387 132.459 831.658 133.188 830.758 133.188H822.613C821.714 133.188 820.984 132.459 820.984 131.559Z" fill="white"/>
</g>
<path d="M999.831 18.3985C1000.47 19.0348 1001.5 19.0348 1002.13 18.3985C1002.77 17.7623 1002.77 16.7307 1002.13 16.0945L1001.56 15.5184C1000.92 14.8822 999.891 14.8822 999.255 15.5184C998.619 16.1547 998.619 17.1862 999.255 17.8225L999.831 18.3985Z" fill="white"/>
<path d="M996.087 14.6544C996.723 15.2907 997.755 15.2907 998.391 14.6544C999.027 14.0182 999.027 12.9866 998.391 12.3504L997.815 11.7743C997.179 11.1381 996.147 11.1381 995.511 11.7743C994.875 12.4106 994.875 13.4422 995.511 14.0784L996.087 14.6544Z" fill="white"/>
<path d="M994.647 10.9103C994.011 11.5466 992.98 11.5466 992.344 10.9103L991.768 10.3343C991.132 9.69807 991.132 8.66651 991.768 8.03026C992.404 7.39401 993.435 7.39401 994.071 8.03026L994.647 8.60627C995.284 9.24252 995.284 10.2741 994.647 10.9103Z" fill="white"/>
<path d="M988.6 7.16624C989.236 7.80249 990.268 7.80249 990.904 7.16624C991.54 6.52999 991.54 5.49843 990.904 4.86218L990.328 4.28617C989.692 3.64992 988.66 3.64992 988.024 4.28617C987.388 4.92242 987.388 5.95398 988.024 6.59022L988.6 7.16624Z" fill="white"/>
<path d="M952.859 51.39C952.223 52.0262 952.223 53.0578 952.859 53.694C953.495 54.3303 954.526 54.3303 955.163 53.694L955.738 53.118C956.375 52.4818 956.375 51.4502 955.738 50.8139C955.102 50.1777 954.071 50.1777 953.435 50.8139L952.859 51.39Z" fill="white"/>
<path fill-rule="evenodd" clip-rule="evenodd" d="M913.631 127.079C909.92 127.079 906.911 130.088 906.911 133.799C906.911 137.511 909.92 140.52 913.631 140.52C914.57 140.52 915.46 140.328 916.268 139.983C917.095 139.629 918.052 140.013 918.406 140.841C918.759 141.668 918.375 142.626 917.548 142.979C916.343 143.494 915.018 143.778 913.631 143.778C908.12 143.778 903.653 139.31 903.653 133.799C903.653 128.288 908.12 123.82 913.631 123.82C919.141 123.82 923.608 128.288 923.608 133.799C923.608 135.215 923.312 136.567 922.777 137.791C922.417 138.616 921.457 138.992 920.632 138.632C919.808 138.272 919.431 137.311 919.792 136.487C920.15 135.666 920.35 134.758 920.35 133.799C920.35 130.088 917.342 127.079 913.631 127.079Z" fill="white"/>
</g>
</g>
<defs>
<clipPath id="clip0_605_4258">
<rect width="22.8051" height="22.809" fill="white" transform="translate(122.577 122.191)"/>
</clipPath>
<clipPath id="clip1_605_4258">
<rect width="22.8051" height="22.809" fill="white" transform="translate(471.578 122.191)"/>
</clipPath>
<clipPath id="clip2_605_4258">
<rect width="22.8051" height="22.809" fill="white" transform="translate(820.577 122.191)"/>
</clipPath>
</defs>
</svg>
